<?xml version="1.0" encoding="UTF-8"?>
<svg width="512" height="512" viewBox="0 0 24 24" fill="none" xmlns="http://www.w3.org/2000/svg">
  <rect width="24" height="24" rx="12" fill="#0070F0"/>
  <path d="M19.3 7.91999V13.07C19.3 16.15 17.54 17.47 14.9 17.47H8.1C5.46 17.47 3.7 16.15 3.7 13.07V7.91999C3.7 4.83999 5.46 3.51999 8.1 3.51999H14.9C17.54 3.51999 19.3 4.83999 19.3 7.91999Z" stroke="white" stroke-width="1.5" stroke-linecap="round" stroke-linejoin="round"/>
  <path d="M15.5 11.5C15.5 13.16 14.16 14.5 12.5 14.5H10.5C8.84 14.5 7.5 13.16 7.5 11.5V9.5C7.5 7.84 8.84 6.5 10.5 6.5H12.5C14.16 6.5 15.5 7.84 15.5 9.5V11.5Z" stroke="white" stroke-width="1.5" stroke-linecap="round" stroke-linejoin="round"/>
  <path d="M11.5 10.5C11.5 11.05 11.05 11.5 10.5 11.5C9.95 11.5 9.5 11.05 9.5 10.5C9.5 9.95 9.95 9.5 10.5 9.5C11.05 9.5 11.5 9.95 11.5 10.5Z" stroke="white" stroke-width="1.5" stroke-linecap="round" stroke-linejoin="round"/>
  <path d="M13.5 10.5C13.5 11.05 13.05 11.5 12.5 11.5C11.95 11.5 11.5 11.05 11.5 10.5C11.5 9.95 11.95 9.5 12.5 9.5C13.05 9.5 13.5 9.95 13.5 10.5Z" stroke="white" stroke-width="1.5" stroke-linecap="round" stroke-linejoin="round"/>
</svg>